<?xml version="1.0" encoding="UTF-8"?> <svg xmlns="http://www.w3.org/2000/svg" width="3920" height="1005"><g fill="#000" fill-rule="nonzero"><path d="M1.8 28.5h345c2 0 1.3 10.2 0 10.2h-71.3s-20-.9-14 10.2c1.2 2.2 243.8 665.4 243.8 665.4s4.2 11.5 7.6 12.8L728.6 60.5c2.2-6.6 9.9-21.4-3.4-21.4h-78c-1.3 0-1.3-10.2 0-10.2H833c1.4 0 1.4 10.2 0 10.2h-69.1c-19-.3-19 5.5-22.5 15.3l-300 935-2.6-7.6c-126.1-365-322-872.8-337.4-927-4.6-16.3-7-15.8-16.5-15.7h-83c-2.5 0-2.2-10.6 0-10.6zm898 468.4c0 279.9 24.2 495.4 241.5 495.6 202.3.2 241-229.3 241-495.6 0-257-39.8-483.5-242.7-483.6-188.8 0-239.9 217.5-239.9 483.6zm237.7 503.3c-220-.8-412.5-224-412.5-498.2C725 237 928.6 4 1141 5.6c207.4 1.7 416.8 207.5 416.3 496.4-.5 276-218.4 498.9-419.7 498.2zM2127 589.6h78.7s14.7-1.6 14.5 5.5v225.4c0 173.3-172.7 175.3-221.6 169.7-180.6-20.4-184.4-393.4-185.3-491.3-2.4-266.2 39.4-498 221-488.7 216 10.9 272.4 320.1 275.8 334 7.2 2.6 7.3-3.5 7.3-3.5l.4-337.3s-1.5-2.8-5.7 1.1l-5.3 5.3c-95.6 97.6-143.3-4.5-282.1-9-171-5.5-383.4 231.5-386 504.9-2.8 275.2 177.8 487.2 375.3 494.7 107.1 4.1 104.8-25.7 237-66.6 80.8-25.1 118.8 29.4 121.7 52 5.2 3.3 5.6-2.7 5.6-2.7V596.4c0-7.7 10.7-6.5 10.7-6.5h72.8c1.8 0 1.8-10.6 0-10.6h-335.2c-2.5 0-2.5 10.3.4 10.3zM3897.6 28.4l-896.6.3c-2.1 0-2.5 9.7-.4 9.7h97.7s10.7.5 11 6v699c.4 187.8-144 249-247.9 250.8-133.3 2.3-194.5-93.5-194.5-201.7l-.4-740.1c0-15.4 23-14 23-14h74.8c1.3 0 2-10.2 0-10.2h-351.8c-1.8 0-2.3 10.2 0 10.2l74.7-.1s17.3-.7 17.8 13.2c.3 9 .8 650.3.8 650.3 0 281.8 228.4 303.3 355.6 302.6l.2.3c108-1.8 258.3-65.6 258-261V44.3c0-5.8 10-5.9 10-5.9h156c2.5 0 10.2.4 10.3 6.4V968c0 4-4 6.2-10.3 6.2h-70.4c-2 0-2.1 10.2 0 10.2h704.5V613.3c0-1.7-8.5-1.7-8.5 0 0 1.8 4.5 360.2-329.4 359.3l-111.7-.3c-6.6-.1-10.5-3-10.5-6.4V500.1c0-4.2 4.3-6.3 10.2-6.3h34.7C3676.6 493.8 3681 685 3681 687c0 2.1 5.4 1.7 5.4 0L3686 296c0-1.8-7.3-2.2-7.3 0 0 2 15 187.5-170 187.5h-38.9c-6.2 0-10.2-2.2-10.2-6.2v-433c0-5 3.9-6 10.5-6h116.4c310.6 0 304.2 334.6 304.2 336.6 0 2.2 6.8 1.8 6.8 0V28.4z"></path><path d="M960.8 547.6h-9.4v2.1h34v-2h-8.9V458h9v-2.1h-34.1v2h9.4v89.7zm76.3-89.5c14.7 0 15.5 26.7 15.5 26.7h2.1v-29H992v29h2s1-26.7 15.6-26.7l6.2-.1v89.6h-9.5v2.1h34v-2h-8.9V458h5.7zm182.5 89.5h-9.4v2.1h34v-2h-9V458h9v-2.1h-34v2h9.4v89.7zm-23.6 2.1v-31h-2.1s-5.7 29-20.2 29h-9V458h9v-2.1h-34.1v2h9.4v89.7h-9.4v2.1h56.4zm-142.3-2v2h24.7v-2l-13.2.2 8.4-28.6h25.6l8.6 28.3h-11.7v2.1h35.2v-2h-7.6l-30-94h-2.9l-28.6 94h-8.5zm44.9-30.5h-24.4l12-38.4 12.4 38.4zm151.6 30.4v2.1h24.8v-2l-13.2.2 8.4-28.6h25.6l8.7 28.3h-11.8v2.1h35.2v-2h-7.6l-30-94h-2.9l-28.7 94h-8.5zm45-30.4H1271l12-38.4 12.3 38.4z"></path></g></svg> 